# AST/ASF file generated using VICON BodyLanguage
# -----------------------------------------------
:version 1.10
:name VICON
:units
  mass 1.0
  length 0.45
  angle deg
:documentation
   .ast/.asf automatically generated from VICON data using
   VICON BodyBuilder and BodyLanguage model FoxedUp or BRILLIANT.MOD
:root
   order TX TY TZ RX RY RZ
   axis XYZ
   position 0 0 0  
   orientation 0 0 0 
:bonedata
  begin
     id 1 
     name lhipjoint
     direction 0.692814 -0.645514 0.321437 
     length 2.38754 
     axis 0 0 0  XYZ
  end
  begin
     id 2 
     name lfemur
     direction 0.34202 -0.939693 0  
     length 6.41921  
     axis 0 0 20  XYZ
    dof rx ry rz
    limits (-160.0 20.0)
           (-70.0 70.0)
           (-60.0 70.0)
  end
  begin
     id 3 
     name ltibia
     direction 0.34202 -0.939693 0   
     length 6.98247   
     axis 0 0 20   XYZ
    dof rx
    limits (-10.0 170.0)
  end
  begin
     id 4 
     name lfoot
     direction 0.0947186 -0.260237 0.960888   
     length 1.83034   
     axis -90 7.62852e-016 20   XYZ
    dof rx rz
    limits (-45.0 90.0)
           (-70.0 20.0)
  end
  begin
     id 5 
     name ltoes
     direction 1.53538e-011 -4.21952e-011 1   
     length 0.920499   
     axis -90 7.62852e-016 20   XYZ
    dof rx
    limits (-90.0 20.0)
  end
  begin
     id 6 
     name rhipjoint
     direction -0.631686 -0.693949 0.345555   
     length 2.2209  
     axis 0 0 0  XYZ 
  end
  begin
     id 7 
     name rfemur
     direction -0.34202 -0.939693 0   
     length 6.49542   
     axis 0 0 -20   XYZ
    dof rx ry rz
    limits (-160.0 20.0)
           (-70.0 70.0)
           (-70.0 60.0)
  end
  begin
     id 8 
     name rtibia
     direction -0.34202 -0.939693 0   
     length 7.21712   
     axis 0 0 -20   XYZ
    dof rx
    limits (-10.0 170.0)
 end
 begin
     id 9 
     name rfoot
     direction -0.0825378 -0.226771 0.970444   
     length 1.89724  
     axis -90 -7.62852e-016 -20   XYZ
    dof rx rz
    limits (-45.0 90.0)
           (-20.0 70.0)
  end
  begin
     id 10 
     name rtoes
     direction -1.53515e-011 -4.22016e-011 1   
     length 0.955868   
     axis -90 -7.62852e-016 -20   XYZ
    dof rx
    limits (-90.0 20.0)
  end
  begin
     id 11 
     name lowerback
     direction -0.0104711 0.984802 -0.173368   
     length 1.84931   
     axis 0 0 0   XYZ
    dof rx ry rz
    limits (-20.0 45.0)
           (-30.0 30.0)
           (-30.0 30.0)
  end
  begin
     id 12 
     name upperback
     direction -0.00286433 0.999996 -0.000382853   
     length 1.85768   
     axis 0 0 0   XYZ
    dof rx ry rz
    limits (-20.0 45.0)
           (-30.0 30.0)
           (-30.0 30.0)
  end
  begin
     id 13 
     name thorax
     direction 0.00167534 0.996793 0.0800069   
     length 1.92   
     axis 0 0 0   XYZ
    dof rx ry rz
    limits (-20.0 45.0)
           (-30.0 30.0)
           (-30.0 30.0)
  end
  begin
     id 14 
     name lowerneck
     direction -0.0672491 0.995415 0.068018   
     length 1.58923   
     axis 0 0 0   XYZ
    dof rx ry rz
    limits (-20.0 45.0)
           (-30.0 30.0)
           (-30.0 30.0)
  end
  begin
     id 15 
     name upperneck
     direction 0.0958019 0.982476 -0.159884   
     length 1.60189   
     axis 0 0 0   XYZ
    dof rx ry rz
    limits (-20.0 45.0)
           (-30.0 30.0)
           (-30.0 30.0)
  end
  begin
     id 16
     name head
     direction 0.032989 0.997338 -0.0650226  
     length 1.61681  
     axis 0 0 0   XYZ
    dof rx ry rz
    limits (-20.0 45.0)
           (-30.0 30.0)
           (-30.0 30.0)
  end
  begin
     id 17 
     name lclavicle
     direction 0.954279 0.298875 -0.00496069  
     length 2.99449  
     axis 0 0 0   XYZ
    dof ry rz
    limits (-20.0 10.0)
           (0.0 20.0)
  end
  begin
     id 18 
     name lhumerus
     direction 1 -4.48985e-011 -4.2057e-027   
     length 4.79185   
     axis 180 -30 -90   XYZ
    dof rx ry rz
    limits (-60.0 90.0)
           (-90.0 90.0)
           (-90.0 90.0)
  end
  begin
     id 19
     name lradius
     direction 1 -4.48945e-011 1.15441e-028   
     length 2.65553   
     axis 180 -30 -90   XYZ
    dof rx
    limits (-10.0 170.0)
  end
  begin
     id 20
     name lwrist
     direction 1 -4.4899e-011 4.8894e-028   
     length 1.32777   
     axis -2.56392e-016 90 90   XYZ
    dof ry
    limits (-180.0 0.0)
 end
  begin
     id 21 
     name lhand
     direction 1 -4.48908e-011 9.7788e-028   
     length 0.743904   
     axis -6.23971e-016 90 90   XYZ
    dof rx rz
    limits (-90.0 90.0)
           (-45.0 45.0)
  end
  begin
     id 22 
     name lfingers
     direction 1 -4.49068e-011 1.95576e-027   
     length 0.599754   
     axis -1.24794e-015 90 90   XYZ
    dof rx
    limits (0.0 90.0)
  end
  begin
     id 23
     name lthumb
     direction 0.707107 -6.34883e-011 0.707107   
     length 0.861131   
     axis -90 45 2.85299e-015   XYZ
    dof rx rz
    limits (-45.0 45.0)
           (-45.0 45.0)
  end
  begin
     id 24 
     name rclavicle
     direction -0.957921 0.286916 0.00811568   
     length 3.06817  
     axis 0 0 0   XYZ 
    dof ry rz
    limits (-10.0 20.0)
           (-20.0 0.0)
  end
  begin
     id 25 
     name rhumerus
     direction -1 -4.48971e-011 -3.07942e-027  
     length 4.77254   
     axis 180 30 90   XYZ
    dof rx ry rz
    limits (-90.0 60.0)
           (-90.0 90.0)
           (-90.0 90.0)
  end
  begin
     id 26 
     name rradius
     direction -1 -4.48957e-011 -9.6815e-028   
     length 2.75995   
     axis 180 30 90   XYZ
    dof rx
    limits (-10.0 170.0)
  end
  begin
     id 27 
     name rwrist
     direction -1 -4.48979e-011 4.8894e-028   
     length 1.37997   
     axis -2.56392e-016 -90 -90   XYZ
    dof ry
    limits (-180.0 0.0)
  end
  begin
     id 28
     name rhand
     direction -1 -4.48906e-011 9.7788e-028   
     length 0.701619   
     axis -6.23971e-016 -90 -90   XYZ
    dof rx rz
    limits (-90.0 90.0)
           (-45.0 45.0)
  end
  begin
     id 29
     name rfingers
     direction -1 -4.49018e-011 1.95576e-027   
     length 0.565663   
     axis -1.24794e-015 -90 -90   XYZ
    dof rx
    limits (0.0 90.0)
  end
  begin
     id 30
     name rthumb
     direction -0.707107 -6.34881e-011 0.707107   
     length 0.812183   
     axis -90 -45 -2.85299e-015   XYZ
    dof rx rz
    limits (-45.0 45.0)
           (-45.0 45.0)
  end
:hierarchy
  begin
    root lhipjoint rhipjoint lowerback
    lhipjoint lfemur
    lfemur ltibia
    ltibia lfoot
    lfoot ltoes
    rhipjoint rfemur
    rfemur rtibia
    rtibia rfoot
    rfoot rtoes
    lowerback upperback
    upperback thorax
    thorax lowerneck lclavicle rclavicle
    lowerneck upperneck
    upperneck head
    lclavicle lhumerus
    lhumerus lradius
    lradius lwrist
    lwrist lhand lthumb
    lhand lfingers
    rclavicle rhumerus
    rhumerus rradius
    rradius rwrist
    rwrist rhand rthumb
    rhand rfingers
  end

#!OML:ASF F:\VICON\USERDATA\INSTALL\rory3\rory3.ASF
:FULLY-SPECIFIED
:DEGREES
834
root -0.320987 15.3904 -1.84746 2.71185 8.91879 -2.15059
lowerback 24.2775 0.416407 -2.48297
upperback 9.81365 0.0356052 -0.511673
thorax -2.7037 -0.00191127 0.85478
lowerneck -5.67267 -8.16784 -16.22
upperneck 10.8848 -11.2197 14.9903
head 5.99404 -5.33903 6.55219
rclavicle -1.19271e-014 3.26007e-014
rhumerus -20.8988 15.7974 -13.5188
rradius 61.5909
rwrist -48.5842
rhand 2.61662 12.1893
rfingers 7.12502
rthumb 28.0941 -15.7266
lclavicle -1.19271e-014 3.26007e-014
lhumerus 10.1151 6.06884 3.29415
lradius 71.48
lwrist 59.7899
lhand 8.65179 17.8766
lfingers 7.12502
lthumb 33.8465 44.6943
rfemur -25.5563 -2.79065 20.0019
rtibia 44.217
rfoot -16.6365 -8.86437
rtoes -13.8655
lfemur -28.2265 -3.28619 -11.015
ltibia 40.4117
lfoot -9.2008 -8.10883
ltoes -9.02694
835
root -0.328799 15.4036 -1.82924 2.88369 9.12094 -2.37667
lowerback 24.1744 0.307891 -2.45434
upperback 9.69734 -0.0952537 -0.493363
thorax -2.77717 -0.0645217 0.891916
lowerneck -5.81935 -8.24755 -16.2744
upperneck 10.9765 -11.3139 14.9987
head 6.06754 -5.38018 6.54806
rclavicle 1.55052e-014 1.19271e-014
rhumerus -23.0136 17.998 -15.2057
rradius 63.0667
rwrist -49.7377
rhand 2.36297 12.4976
rfingers 7.12502
rthumb 27.8517 -15.4579
lclavicle 1.55052e-014 1.19271e-014
lhumerus 9.78876 5.32849 3.74165
lradius 72.563
lwrist 59.8211
lhand 8.75707 17.4982
lfingers 7.12502
lthumb 33.9465 44.2939
rfemur -25.496 -2.78922 20.2991
rtibia 43.8883
rfoot -16.596 -9.03362
rtoes -13.5639
lfemur -28.3511 -3.33957 -10.7167
ltibia 40.2408
lfoot -9.10544 -8.20967
ltoes -9.27157
836
root -0.337725 15.4157 -1.81249 3.07255 9.3006 -2.64064
lowerback 24.0855 0.206514 -2.38046
upperback 9.56292 -0.209658 -0.499935
thorax -2.87833 -0.117229 0.87221
lowerneck -6.01995 -8.33345 -16.2592
upperneck 11.1674 -11.4165 14.9419
head 6.17452 -5.42306 6.50823
rclavicle 1.07344e-014 1.19271e-014
rhumerus -25.2968 20.0429 -17.1362
rradius 64.6367
rwrist -50.8027
rhand 2.4382 12.6503
rfingers 7.12502
rthumb 27.9236 -15.2935
lclavicle 1.07344e-014 1.19271e-014
lhumerus 9.477 4.55197 4.1842
lradius 73.5413
lwrist 59.4087
lhand 9.18265 16.923
lfingers 7.12502
lthumb 34.3507 43.6282
rfemur -25.4659 -2.75716 20.6544
rtibia 43.565
rfoot -16.5258 -9.28639
rtoes -13.5313
lfemur -28.506 -3.29684 -10.377
ltibia 40.0621
lfoot -8.99487 -8.36998
ltoes -9.4514
837
root -0.348439 15.4303 -1.79369 3.19784 9.51359 -2.83786
lowerback 24.0553 0.115876 -2.41328
upperback 9.436 -0.334999 -0.512078
thorax -2.99837 -0.17708 0.910345
lowerneck -6.12423 -8.412 -16.3231
upperneck 11.3768 -11.529 14.9765
head 6.28268 -5.47293 6.51451
rclavicle 5.1684e-015 -1.59028e-014
rhumerus -27.7372 22.0303 -19.2643
rradius 66.3373
rwrist -51.738
rhand 2.56477 12.6139
rfingers 7.12502
rthumb 28.0446 -15.3101
lclavicle 5.1684e-015 -1.59028e-014
lhumerus 9.12981 3.6632 4.5649
lradius 74.6451
lwrist 59.4271
lhand 9.60918 16.9957
lfingers 7.12502
lthumb 34.7556 43.6085
rfemur -25.3414 -2.74947 20.9392
rtibia 43.2501
rfoot -16.4795 -9.50284
rtoes -13.7766
lfemur -28.5663 -3.20539 -10.1228
ltibia 39.8661
lfoot -8.83638 -8.60841
ltoes -9.30888
838
root -0.360504 15.4486 -1.77435 3.31914 9.80662 -2.99483
lowerback 23.9926 0.0140159 -2.51956
upperback 9.34588 -0.487365 -0.508006
thorax -3.05977 -0.252449 1.01457
lowerneck -6.20601 -8.51579 -16.2601
upperneck 11.4735 -11.6677 14.9102
head 6.34229 -5.53725 6.46244
rclavicle -3.73715e-014 1.51076e-014
rhumerus -30.3033 23.9262 -21.5971
rradius 68.0774
rwrist -52.4673
rhand 2.50604 12.7541
rfingers 7.12502
rthumb 27.9884 -15.1791
lclavicle -3.73715e-014 1.51076e-014
lhumerus 8.75554 2.62033 4.93702
lradius 75.9284
lwrist 60.1291
lhand 9.28634 17.3254
lfingers 7.12502
lthumb 34.4491 44.0083
rfemur -25.2522 -2.78831 21.1593
rtibia 42.9326
rfoot -16.4618 -9.61138
rtoes -12.7751
lfemur -28.6351 -3.07744 -9.92491
ltibia 39.6715
lfoot -8.65199 -8.95179
ltoes -8.92759
839
root -0.374606 15.4618 -1.75709 3.49524 10.1561 -3.18038
lowerback 23.9236 -0.0995255 -2.56836
upperback 9.22103 -0.643952 -0.527096
thorax -3.15659 -0.327391 1.06227
lowerneck -6.17774 -8.63698 -16.1383
upperneck 11.5138 -11.8594 14.9241
head 6.37505 -5.62527 6.42504
rclavicle -2.78299e-015 -7.15625e-015
rhumerus -33.0858 25.7338 -24.2407
rradius 69.811
rwrist -53.1046
rhand 2.23852 12.94
rfingers 7.12502
rthumb 27.7327 -15.0347
lclavicle -2.78299e-015 -7.15625e-015
lhumerus 8.4815 1.57949 5.412
lradius 77.1174
lwrist 60.5878
lhand 8.75456 17.3441
lfingers 7.12502
lthumb 33.9441 44.1402
rfemur -25.2377 -2.85342 21.4313
rtibia 42.6162
rfoot -16.4174 -9.81144
rtoes -12.2427
lfemur -28.8129 -3.08548 -9.66231
ltibia 39.4842
lfoot -8.4352 -9.16118
ltoes -8.47761
840
root -0.388104 15.47 -1.74047 3.61694 10.5251 -3.44176
lowerback 23.9547 -0.235576 -2.54952
upperback 9.09019 -0.816163 -0.515991
thorax -3.30904 -0.408366 1.10912
lowerneck -6.08434 -8.82035 -16.0911
upperneck 11.4391 -12.1317 14.9742
head 6.38097 -5.7571 6.40329
rclavicle 5.56597e-015 -1.82882e-014
rhumerus -35.9335 27.3348 -27.0483
rradius 71.5855
rwrist -53.7225
rhand 2.05987 12.9439
rfingers 7.12502
rthumb 27.5618 -15.0582
lclavicle 5.56597e-015 -1.82882e-014
lhumerus 8.17904 0.768555 6.16508
lradius 78.2555
lwrist 60.6692
lhand 8.67008 17.2638
lfingers 7.12502
lthumb 33.8639 44.0777
rfemur -25.1268 -2.89226 21.781
rtibia 42.281
rfoot -16.4246 -10.0495
rtoes -11.8977
lfemur -28.9844 -3.15667 -9.31899
ltibia 39.3292
lfoot -8.24839 -9.31685
ltoes -8.26288
841
root -0.400714 15.4805 -1.72114 3.71678 10.9216 -3.67309
lowerback 23.9213 -0.396871 -2.59092
upperback 9.02628 -1.02941 -0.495741
thorax -3.35332 -0.512333 1.20978
lowerneck -6.16204 -9.07371 -16.0045
upperneck 11.3828 -12.4701 14.9369
head 6.42508 -5.91664 6.33024
rclavicle -1.94809e-014 -2.06736e-014
rhumerus -38.7111 28.7129 -30.0173
rradius 73.3101
rwrist -54.3307
rhand 1.8484 12.7875
rfingers 7.12502
rthumb 27.3596 -15.2467
lclavicle -1.94809e-014 -2.06736e-014
lhumerus 7.76947 0.0439859 7.0286
lradius 79.4892
lwrist 60.8261
lhand 8.46547 17.3299
lfingers 7.12502
lthumb 33.6695 44.1865
rfemur -24.9768 -3.00185 22.0939
rtibia 41.9232
rfoot -16.4048 -10.2679
rtoes -11.0824
lfemur -29.1281 -3.25863 -9.00448
ltibia 39.2175
lfoot -8.04752 -9.5378
ltoes -7.88454
842
root -0.413228 15.4915 -1.70163 3.86844 11.3747 -3.92197
lowerback 23.8331 -0.601609 -2.58312
upperback 8.94224 -1.28748 -0.49414
thorax -3.39207 -0.636962 1.27313
lowerneck -6.3771 -9.26215 -15.8425
upperneck 11.4859 -12.7174 14.8491
head 6.51884 -6.02455 6.23451
rclavicle 3.02153e-014 1.19271e-014
rhumerus -41.5195 29.9553 -33.242
rradius 74.8643
rwrist -54.9277
rhand 1.44692 12.72
rfingers 7.12502
rthumb 26.9755 -15.3742
lclavicle 3.02153e-014 1.19271e-014
lhumerus 7.36971 -0.716135 7.88432
lradius 80.3767
lwrist 60.7776
lhand 8.49138 17.3188
lfingers 7.12502
lthumb 33.6941 44.17
rfemur -24.8809 -3.18842 22.4291
rtibia 41.5392
rfoot -16.3431 -10.4314
rtoes -10.3811
lfemur -29.3696 -3.36942 -8.67169
ltibia 39.128
lfoot -7.85199 -9.78169
ltoes -7.45152
843
root -0.429496 15.5022 -1.68331 3.97563 11.8883 -4.38172
lowerback 23.7822 -0.83524 -2.42945
upperback 8.84564 -1.54885 -0.431481
thorax -3.46542 -0.761342 1.32064
lowerneck -6.32898 -9.41488 -15.7443
upperneck 11.3867 -12.9434 14.8879
head 6.51241 -6.13107 6.2039
rclavicle -7.15625e-015 4.77083e-015
rhumerus -44.4168 31.0682 -36.6831
rradius 76.2874
rwrist -55.5043
rhand 0.928767 12.8884
rfingers 7.12502
rthumb 26.4797 -15.2815
lclavicle -7.15625e-015 4.77083e-015
lhumerus 6.93059 -1.47098 8.69184
lradius 81.1215
lwrist 60.4134
lhand 8.96617 17.1502
lfingers 7.12502
lthumb 34.1451 43.9017
rfemur -24.7773 -3.33414 23.005
rtibia 41.149
rfoot -16.3889 -10.5669
rtoes -9.50025
lfemur -29.6563 -3.48004 -8.08958
ltibia 39.0251
lfoot -7.68293 -10.0235
ltoes -7.58032
844
root -0.447263 15.5145 -1.6619 4.08357 12.3743 -4.72155
lowerback 23.7186 -1.01824 -2.44553
upperback 8.7476 -1.7834 -0.389341
thorax -3.52995 -0.874997 1.43554
lowerneck -5.99556 -9.61244 -15.768
upperneck 11.1437 -13.2641 15.081
head 6.44631 -6.29413 6.24369
rclavicle 1.03368e-014 3.33958e-014
rhumerus -47.4844 31.9673 -40.275
rradius 77.693
rwrist -56.0446
rhand 0.378395 13.2289
rfingers 7.12502
rthumb 25.9528 -15.0193
lclavicle 1.03368e-014 3.33958e-014
lhumerus 6.391 -2.51931 9.34328
lradius 82.469
lwrist 60.1043
lhand 9.20187 17.2338
lfingers 7.12502
lthumb 34.369 43.9349
rfemur -24.6707 -3.45642 23.4619
rtibia 40.7859
rfoot -16.3546 -10.8342
rtoes -9.38089
lfemur -29.9013 -3.58577 -7.63662
ltibia 38.9369
lfoot -7.56481 -10.2631
ltoes -7.67461
845
root -0.462448 15.5251 -1.64188 4.23852 12.8831 -4.88202
lowerback 23.6735 -1.18425 -2.60913
upperback 8.64564 -2.03078 -0.384726
thorax -3.60202 -0.995893 1.59772
lowerneck -5.77003 -9.82389 -15.8702
upperneck 11 -13.5993 15.3289
head 6.4432 -6.45934 6.30804
rclavicle -5.32743e-014 3.97569e-015
rhumerus -50.5175 32.5671 -43.8634
rradius 78.9469
rwrist -56.41
rhand 0.083599 13.5817
rfingers 7.12502
rthumb 25.6704 -14.7076
lclavicle -5.32743e-014 3.97569e-015
lhumerus 5.90506 -3.69587 10.0953
lradius 84.0012
lwrist 59.3895
lhand 9.20462 17.4414
lfingers 7.12502
lthumb 34.3716 44.1419
rfemur -24.602 -3.65217 23.7089
rtibia 40.4494
rfoot -16.3046 -11.0557
rtoes -9.25292
lfemur -30.1772 -3.7816 -7.38676
ltibia 38.8747
lfoot -7.43751 -10.4568
ltoes -7.47996
846
root -0.474018 15.532 -1.62828 4.46057 13.3675 -5.20193
lowerback 23.6126 -1.35879 -2.52285
upperback 8.49813 -2.2368 -0.390895
thorax -3.72796 -1.09171 1.59608
lowerneck -5.64382 -10.0486 -15.8638
upperneck 10.9215 -13.9519 15.535
head 6.47081 -6.6261 6.33429
rclavicle -4.05521e-014 5.24792e-014
rhumerus -53.5763 32.8085 -47.526
rradius 80.0853
rwrist -56.6916
rhand 0.0209551 13.7977
rfingers 7.12502
rthumb 25.6104 -14.5002
lclavicle -4.05521e-014 5.24792e-014
lhumerus 5.67739 -4.80477 10.9738
lradius 85.0684
lwrist 58.437
lhand 9.30635 17.4331
lfingers 7.12502
lthumb 34.4681 44.1117
rfemur -24.7081 -3.86454 24.1128
rtibia 40.1384
rfoot -16.2455 -11.1616
rtoes -8.7927
lfemur -30.6197 -3.93819 -6.96552
ltibia 38.8318
lfoot -7.27602 -10.6148
ltoes -7.39898
847
root -0.486665 15.5375 -1.61209 4.65093 13.8392 -5.61303
lowerback 23.5109 -1.517 -2.37075
upperback 8.37868 -2.40501 -0.378528
thorax -3.80715 -1.16972 1.56546
lowerneck -5.55244 -10.3086 -15.8658
upperneck 10.8416 -14.3574 15.8022
head 6.51943 -6.81439 6.37275
rclavicle 2.54444e-014 -9.54166e-015
rhumerus -56.5088 32.8118 -51.1561
rradius 81.0139
rwrist -56.7704
rhand 0.128329 13.8763
rfingers 7.12502
rthumb 25.7133 -14.4067
lclavicle 2.54444e-014 -9.54166e-015
lhumerus 5.65786 -5.82196 11.9289
lradius 85.7828
lwrist 57.6205
lhand 9.47301 17.3464
lfingers 7.12502
lthumb 34.6263 43.9889
rfemur -24.8005 -4.10375 24.6362
rtibia 39.8565
rfoot -16.1624 -11.3099
rtoes -8.87202
lfemur -31.0464 -4.10146 -6.42942
ltibia 38.8018
lfoot -7.15361 -10.7612
ltoes -7.5312
848
root -0.501982 15.5456 -1.58831 4.75833 14.4465 -5.91174
lowerback 23.4383 -1.67339 -2.39492
upperback 8.30512 -2.60565 -0.330703
thorax -3.83923 -1.26689 1.68116
lowerneck -5.48326 -10.6122 -15.9513
upperneck 10.7866 -14.8175 16.086
head 6.5983 -7.03014 6.42012
rclavicle 3.49861e-014 -1.11319e-014
rhumerus -59.2136 32.5373 -54.4985
rradius 81.8304
rwrist -56.462
rhand 0.616005 13.5386
rfingers 7.12502
rthumb 26.1803 -14.676
lclavicle 3.49861e-014 -1.11319e-014
lhumerus 5.6406 -6.89893 12.8945
lradius 86.4737
lwrist 56.9885
lhand 9.56887 17.2988
lfingers 7.12502
lthumb 34.7173 43.9204
rfemur -24.7292 -4.3864 25.0596
rtibia 39.5902
rfoot -16.1863 -11.5997
rtoes -8.96057
lfemur -31.356 -4.39098 -5.99884
ltibia 38.7794
lfoot -7.02121 -10.9816
ltoes -7.06648
